<svg xmlns="http://www.w3.org/2000/svg" width="16.889" height="19" viewBox="0 0 16.889 19"><defs><style>.a{fill:#24214c;}</style></defs><path class="a" d="M5.031,11.195H9.1l-.669,2.252H5.067v6.94c0,.352-.123.4.194.44l2.621.246v1.513H0V21.038l1.284-.123c.317-.035.4-.141.4-.475V13.587c0-.141-.176-.141-.352-.141H0V11.195H1.689V9.928c0-2.991,1.6-4.222,4.662-4.222,2.058,0,3.906.493,3.906,3.184L7.2,9.26c.018-1.126-.264-1.39-.985-1.39-1.108,0-1.144.6-1.144,1.654v1.407c0,.141-.211.264-.035.264ZM16.889,22.586H10.7V21.073l1.231-.158c.317-.035.457-.106.457-.44V13.966a.5.5,0,0,0-.4-.475L10.52,13.1l.4-1.777h4.838v9.148c0,.352-.158.387.176.44l.95.158ZM15.569,7.316l.545,2.006-.44.44-1.882-1-1.882,1-.44-.44.545-2.006L10.7,5.715l.211-.44h1.671l.932-1.689h.563l.932,1.689h1.671l.211.581Z" transform="translate(0 -3.586)"/></svg>