<svg xmlns="http://www.w3.org/2000/svg" width="25.229" height="17.661" viewBox="0 0 25.229 17.661"><defs><style>.a{fill:#f17e7b;}</style></defs><path class="a" d="M21.445,9.819,16.4,9.188l-1.892-.631h-.946L8.955,2.723h1.557c.46,0,.841-.1.841-.237s-.381-.237-.841-.237H5.992v.473h.631V9.188H4.731L2.1,6.034H.736l-.421.421V9.188H.631v.631H2.523v.105L0,10.239v1.682l2.523.315v.105H.631v.631H.315v2.733l.421.421H2.1l2.628-3.154H6.623v6.465H5.992v.473h4.52c.46,0,.841-.1.841-.237s-.381-.237-.841-.237H8.955L13.561,13.6h.946l1.892-.631,5.046-.631c3.784-.841,3.784-1.048,3.784-1.261S25.229,10.66,21.445,9.819Z" transform="translate(0 -2.25)"/></svg>