<svg xmlns="http://www.w3.org/2000/svg" width="25.491" height="17.844" viewBox="0 0 25.491 17.844"><defs><style>.a{fill:#cfcfcf;}</style></defs><path class="a" d="M3.824,9.9A2.549,2.549,0,1,0,1.275,7.348,2.551,2.551,0,0,0,3.824,9.9Zm17.844,0a2.549,2.549,0,1,0-2.549-2.549A2.551,2.551,0,0,0,21.667,9.9Zm1.275,1.275H20.393a2.542,2.542,0,0,0-1.8.741,5.826,5.826,0,0,1,2.991,4.357h2.629A1.273,1.273,0,0,0,25.491,15V13.721A2.551,2.551,0,0,0,22.942,11.172Zm-10.2,0A4.461,4.461,0,1,0,8.285,6.711,4.459,4.459,0,0,0,12.746,11.172ZM15.8,12.446h-.331a6.159,6.159,0,0,1-5.457,0H9.687A4.59,4.59,0,0,0,5.1,17.035v1.147A1.912,1.912,0,0,0,7.01,20.094H18.481a1.912,1.912,0,0,0,1.912-1.912V17.035A4.59,4.59,0,0,0,15.8,12.446Zm-8.91-.534a2.542,2.542,0,0,0-1.8-.741H2.549A2.551,2.551,0,0,0,0,13.721V15A1.273,1.273,0,0,0,1.275,16.27H3.9A5.841,5.841,0,0,1,6.895,11.913Z" transform="translate(0 -2.25)"/></svg>