<svg xmlns="http://www.w3.org/2000/svg" width="25.031" height="20.117" viewBox="0 0 25.031 20.117"><defs><style>.a{fill:#407bff;}</style></defs><g transform="translate(-2.253 -5.348)"><path class="a" d="M9.437,9.812c-.14.168-.274.335-.4.514a52.374,52.374,0,0,0,6.939,6.353,54.175,54.175,0,0,0,6.224,4.2c.33.184.654.363.967.525.14-.168.274-.335.4-.514a8.366,8.366,0,0,0,1.3-2.995c.045-.179.084-.358.117-.531a8.98,8.98,0,0,0-12.56-9.845A8.339,8.339,0,0,0,9.437,9.812Z" transform="translate(-1.393 -0.277)"/><path class="a" d="M23.828,19.357a10.408,10.408,0,0,1-.413.978A13.965,13.965,0,0,1,25.2,22.928c.134.229.413.732.05.693a2.664,2.664,0,0,1-.307-.073,21.2,21.2,0,0,1-4.71-2.09A55.473,55.473,0,0,1,13.9,17.2a52.2,52.2,0,0,1-7.3-6.733A19.177,19.177,0,0,1,4.608,7.786,4.221,4.221,0,0,1,4.3,7.205c-.14-.346.279-.285.391-.257a11.707,11.707,0,0,1,3.252,1.33,4.7,4.7,0,0,1,.777-.637A18.257,18.257,0,0,0,5.072,5.657c-1.291-.492-2.3-.38-2.654.207C1.737,6.976,3.2,9.9,6.067,13.239A8.979,8.979,0,0,0,19.1,23.3a31.865,31.865,0,0,0,5.414,1.95c1.335.341,2.257.307,2.615-.274C27.751,23.956,26.454,22.078,23.828,19.357Z"/></g></svg>